<svg width="185" height="46" viewBox="0 0 185 46" fill="none" xmlns="http://www.w3.org/2000/svg">
<path d="M10.15 44H0.39V43.939C1.366 43.4917 2.26067 42.6987 3.074 41.56C3.88733 40.4213 4.66 38.9777 5.392 37.229C6.16467 35.4803 6.917 33.4673 7.649 31.19C8.381 28.9127 9.113 26.4117 9.845 23.687L12.59 13.561C12.7933 12.829 13.017 11.853 13.261 10.633C13.5457 9.413 13.749 8.193 13.871 6.973C14.0337 5.71233 14.054 4.55333 13.932 3.496C13.8507 2.43866 13.5253 1.727 12.956 1.361V1.3H23.753V1.361C23.509 1.52366 23.3463 1.93033 23.265 2.581C23.1837 3.191 23.1837 3.96366 23.265 4.899C23.3463 5.79367 23.4887 6.81033 23.692 7.949C23.936 9.047 24.2003 10.1653 24.485 11.304L30.585 33.996C30.9103 35.1347 31.256 36.2733 31.622 37.412C31.988 38.51 32.3743 39.5267 32.781 40.462C33.1877 41.3567 33.5943 42.1293 34.001 42.78C34.4077 43.39 34.794 43.7763 35.16 43.939V44H23.448V43.939C23.814 43.695 23.997 43.1053 23.997 42.17C23.997 41.2347 23.9157 40.2383 23.753 39.181C23.5903 38.083 23.387 37.046 23.143 36.07C22.9397 35.094 22.7973 34.4027 22.716 33.996L22.167 32.105H9.296C9.09267 33.6503 8.95033 35.094 8.869 36.436C8.78767 37.778 8.78767 38.9777 8.869 40.035C8.95033 41.0517 9.09267 41.9057 9.296 42.597C9.49933 43.2477 9.784 43.695 10.15 43.939V44ZM11.004 23.687C10.6787 24.9477 10.394 26.188 10.15 27.408C9.906 28.5873 9.68233 29.7667 9.479 30.946H21.862L16.555 11.06C16.311 10.084 15.945 9.596 15.457 9.596C15.0097 9.596 14.664 10.084 14.42 11.06L11.004 23.687ZM35.7495 44V43.939C36.3595 43.6137 36.9085 42.8613 37.3965 41.682C37.9252 40.462 38.3928 38.9777 38.7995 37.229C39.2062 35.4397 39.5112 33.4267 39.7145 31.19C39.9585 28.9127 40.0805 26.5337 40.0805 24.053V13.561C40.0805 11.853 39.9788 10.2873 39.7755 8.864C39.6128 7.44067 39.3688 6.20033 39.0435 5.143C38.7588 4.08566 38.4538 3.23166 38.1285 2.581C37.8032 1.93033 37.4778 1.52366 37.1525 1.361V1.3H48.8035L58.1365 32.41L67.4695 1.3H77.2905V1.361C77.0058 1.52366 76.7415 1.93033 76.4975 2.581C76.2535 3.191 76.0298 3.96366 75.8265 4.899C75.6638 5.79367 75.5418 6.81033 75.4605 7.949C75.3792 9.047 75.3385 10.1653 75.3385 11.304V33.996C75.3385 35.1347 75.3792 36.2733 75.4605 37.412C75.5418 38.51 75.6638 39.5267 75.8265 40.462C76.0298 41.3567 76.2535 42.1293 76.4975 42.78C76.7415 43.39 77.0058 43.7763 77.2905 43.939V44H65.5785V43.939C65.9038 43.7763 66.1682 43.39 66.3715 42.78C66.6155 42.1293 66.8188 41.3567 66.9815 40.462C67.1442 39.5267 67.2662 38.51 67.3475 37.412C67.4288 36.2733 67.4695 35.1347 67.4695 33.996V17.16C67.4695 15.7773 67.4288 14.6387 67.3475 13.744C67.3068 12.8493 67.2255 12.1377 67.1035 11.609C66.9815 11.0803 66.8392 10.7143 66.6765 10.511C66.5545 10.267 66.4122 10.145 66.2495 10.145C65.9648 10.145 65.7208 10.45 65.5175 11.06L58.6855 34.301L58.7465 34.484C59.2345 36.07 59.7632 37.4527 60.3325 38.632C60.9425 39.7707 61.5118 40.4823 62.0405 40.767H52.5855L43.4355 11.06C43.3135 10.5313 43.0695 10.267 42.7035 10.267C42.3782 10.267 42.0325 10.7143 41.6665 11.609C41.3412 12.463 41.1785 14.0693 41.1785 16.428V24.053C41.1785 26.5337 41.2802 28.9127 41.4835 31.19C41.7275 33.4267 42.0528 35.4397 42.4595 37.229C42.8662 38.9777 43.3135 40.462 43.8015 41.682C44.3302 42.8613 44.8995 43.6137 45.5095 43.939V44H35.7495ZM98.6763 44.366C95.5449 44.366 92.8609 43.7763 90.6243 42.597C88.3876 41.4177 86.5576 39.852 85.1343 37.9C83.7109 35.9073 82.6536 33.6097 81.9623 31.007C81.3116 28.3637 80.9863 25.578 80.9863 22.65C80.9863 19.722 81.3116 16.9567 81.9623 14.354C82.6536 11.7107 83.7109 9.413 85.1343 7.461C86.5576 5.46833 88.3876 3.88233 90.6243 2.703C92.8609 1.52366 95.5449 0.933998 98.6763 0.933998C101.848 0.933998 104.553 1.52366 106.789 2.703C109.026 3.88233 110.856 5.46833 112.279 7.461C113.703 9.413 114.74 11.7107 115.39 14.354C116.082 16.9567 116.427 19.722 116.427 22.65C116.427 25.578 116.082 28.3637 115.39 31.007C114.74 33.6097 113.703 35.9073 112.279 37.9C110.856 39.852 109.026 41.4177 106.789 42.597C104.553 43.7763 101.848 44.366 98.6763 44.366ZM98.6763 2.093C97.2936 2.093 96.0329 2.642 94.8943 3.74C93.7556 4.838 92.7796 6.32233 91.9663 8.193C91.1529 10.0637 90.5226 12.2393 90.0753 14.72C89.6279 17.2007 89.4043 19.844 89.4043 22.65C89.4043 25.456 89.6279 28.0993 90.0753 30.58C90.5226 33.0607 91.1529 35.2363 91.9663 37.107C92.7796 38.9777 93.7556 40.462 94.8943 41.56C96.0329 42.658 97.2936 43.207 98.6763 43.207C100.059 43.207 101.32 42.658 102.458 41.56C103.597 40.462 104.573 38.9777 105.386 37.107C106.2 35.2363 106.83 33.0607 107.277 30.58C107.725 28.0993 107.948 25.456 107.948 22.65C107.948 19.844 107.725 17.2007 107.277 14.72C106.83 12.2393 106.2 10.0637 105.386 8.193C104.573 6.32233 103.597 4.838 102.458 3.74C101.32 2.642 100.059 2.093 98.6763 2.093ZM120.125 44V43.939C120.451 43.7763 120.715 43.39 120.918 42.78C121.162 42.1293 121.366 41.3567 121.528 40.462C121.691 39.5267 121.813 38.51 121.894 37.412C121.976 36.2733 122.016 35.1347 122.016 33.996V11.304C122.016 10.1653 121.976 9.047 121.894 7.949C121.813 6.81033 121.691 5.79367 121.528 4.899C121.366 3.96366 121.162 3.191 120.918 2.581C120.715 1.93033 120.451 1.52366 120.125 1.361V1.3H138.364C141.089 1.3 143.366 1.86933 145.196 3.008C147.026 4.14666 148.429 5.57 149.405 7.278C150.381 8.986 150.91 10.877 150.991 12.951C151.113 14.9843 150.808 16.9363 150.076 18.807C149.344 20.637 148.165 22.223 146.538 23.565C144.952 24.907 142.96 25.761 140.56 26.127C141.902 26.6557 143.041 27.4283 143.976 28.445C144.912 29.421 145.725 30.5393 146.416 31.8C147.108 33.02 147.738 34.3213 148.307 35.704C148.877 37.046 149.466 38.327 150.076 39.547C150.686 40.7263 151.357 41.7837 152.089 42.719C152.821 43.6543 153.716 44.3253 154.773 44.732V44.793C153.309 45.1997 151.947 45.403 150.686 45.403C148.653 45.403 146.945 44.9353 145.562 44C144.22 43.0647 143.082 41.8853 142.146 40.462C141.252 39.0387 140.459 37.5137 139.767 35.887C139.117 34.2197 138.446 32.6743 137.754 31.251C137.104 29.8277 136.351 28.6483 135.497 27.713C134.643 26.7777 133.566 26.31 132.264 26.31V25.151C134.46 25.151 136.29 24.602 137.754 23.504C139.218 22.3653 140.316 20.9623 141.048 19.295C141.78 17.587 142.187 15.757 142.268 13.805C142.35 11.853 142.106 10.0433 141.536 8.376C140.967 6.668 140.093 5.265 138.913 4.167C137.734 3.02833 136.29 2.459 134.582 2.459H133.728C132.142 2.459 131.105 3.17066 130.617 4.594C130.129 5.97666 129.885 7.827 129.885 10.145V33.996C129.885 35.1347 129.926 36.2733 130.007 37.412C130.089 38.51 130.211 39.5267 130.373 40.462C130.577 41.3567 130.8 42.1293 131.044 42.78C131.288 43.39 131.553 43.7763 131.837 43.939V44H120.125ZM156.106 44V43.939C156.431 43.7763 156.696 43.39 156.899 42.78C157.143 42.1293 157.346 41.3567 157.509 40.462C157.672 39.5267 157.794 38.51 157.875 37.412C157.956 36.2733 157.997 35.1347 157.997 33.996V11.304C157.997 10.1653 157.956 9.047 157.875 7.949C157.794 6.81033 157.672 5.79367 157.509 4.899C157.346 3.96366 157.143 3.191 156.899 2.581C156.696 1.93033 156.431 1.52366 156.106 1.361V1.3H182.641L184.166 15.879H184.105C183.576 14.7403 182.905 13.3983 182.092 11.853C181.319 10.3077 180.343 8.84367 179.164 7.461C178.025 6.07833 176.663 4.899 175.077 3.923C173.532 2.947 171.742 2.459 169.709 2.459C168.123 2.459 167.086 3.17066 166.598 4.594C166.11 5.97666 165.866 7.827 165.866 10.145V22.101H167.757C169.221 22.101 170.522 21.9383 171.661 21.613C172.84 21.2877 173.837 20.9013 174.65 20.454C175.463 19.966 176.134 19.478 176.663 18.99C177.192 18.502 177.537 18.1157 177.7 17.831V27.469C177.537 27.1437 177.192 26.7573 176.663 26.31C176.175 25.822 175.524 25.3543 174.711 24.907C173.898 24.419 172.901 24.0123 171.722 23.687C170.583 23.3617 169.262 23.199 167.757 23.199H165.866V35.155C165.866 37.473 166.11 39.3437 166.598 40.767C167.086 42.1497 168.123 42.841 169.709 42.841H170.502C172.535 42.841 174.325 42.353 175.87 41.377C177.456 40.401 178.818 39.2217 179.957 37.839C181.136 36.4563 182.112 34.9923 182.885 33.447C183.698 31.9017 184.349 30.5597 184.837 29.421H184.898L183.373 44H156.106Z" fill="black"/>
</svg>
