<svg width="1068" height="41" viewBox="0 0 1068 41" fill="none" xmlns="http://www.w3.org/2000/svg">
<path d="M16.712 39.324C14.084 39.324 11.762 38.784 9.746 37.704C7.73 36.588 6.038 35.13 4.67 33.33C3.338 31.53 2.312 29.478 1.592 27.174C0.908 24.87 0.548 22.512 0.512 20.1C0.512 17.688 0.818 15.33 1.43 13.026C2.078 10.722 3.068 8.67 4.4 6.87C5.732 5.07 7.388 3.63 9.368 2.55C11.384 1.434 13.742 0.875998 16.442 0.875998C18.494 0.875998 20.294 1.2 21.842 1.848C23.39 2.46 24.668 3.288 25.676 4.332C26.72 5.34 27.494 6.474 27.998 7.734C28.502 8.994 28.754 10.254 28.754 11.514C28.754 12.522 28.61 13.404 28.322 14.16C28.034 14.88 27.638 15.474 27.134 15.942C26.666 16.41 26.126 16.752 25.514 16.968C24.938 17.184 24.344 17.292 23.732 17.292C22.796 17.292 21.932 17.058 21.14 16.59C20.384 16.086 19.88 15.402 19.628 14.538V14.484C20.096 14.016 20.456 13.386 20.708 12.594C20.96 11.766 21.104 10.884 21.14 9.948C21.176 9.012 21.086 8.076 20.87 7.14C20.69 6.168 20.384 5.304 19.952 4.548C19.556 3.756 19.034 3.126 18.386 2.658C17.774 2.154 17.054 1.902 16.226 1.902C15.074 1.902 14.012 2.37 13.04 3.306C12.068 4.242 11.222 5.466 10.502 6.978C9.782 8.49 9.206 10.218 8.774 12.162C8.342 14.106 8.09 16.104 8.018 18.156C7.982 20.172 8.162 22.152 8.558 24.096C8.954 26.04 9.584 27.768 10.448 29.28C11.348 30.792 12.536 32.016 14.012 32.952C15.488 33.888 17.27 34.356 19.358 34.356C21.59 34.356 23.642 33.798 25.514 32.682C27.422 31.566 29.006 29.892 30.266 27.66L30.374 27.768C29.222 31.296 27.458 34.104 25.082 36.192C22.742 38.28 19.952 39.324 16.712 39.324ZM48.6589 39.324C45.8869 39.324 43.5109 38.802 41.5309 37.758C39.5509 36.714 37.9309 35.328 36.6709 33.6C35.4109 31.836 34.4749 29.802 33.8629 27.498C33.2869 25.158 32.9989 22.692 32.9989 20.1C32.9989 17.508 33.2869 15.06 33.8629 12.756C34.4749 10.416 35.4109 8.382 36.6709 6.654C37.9309 4.89 39.5509 3.486 41.5309 2.442C43.5109 1.398 45.8869 0.875998 48.6589 0.875998C51.4669 0.875998 53.8609 1.398 55.8409 2.442C57.8209 3.486 59.4409 4.89 60.7009 6.654C61.9609 8.382 62.8789 10.416 63.4549 12.756C64.0669 15.06 64.3729 17.508 64.3729 20.1C64.3729 22.692 64.0669 25.158 63.4549 27.498C62.8789 29.802 61.9609 31.836 60.7009 33.6C59.4409 35.328 57.8209 36.714 55.8409 37.758C53.8609 38.802 51.4669 39.324 48.6589 39.324ZM48.6589 1.902C47.4349 1.902 46.3189 2.388 45.3109 3.36C44.3029 4.332 43.4389 5.646 42.7189 7.302C41.9989 8.958 41.4409 10.884 41.0449 13.08C40.6489 15.276 40.4509 17.616 40.4509 20.1C40.4509 22.584 40.6489 24.924 41.0449 27.12C41.4409 29.316 41.9989 31.242 42.7189 32.898C43.4389 34.554 44.3029 35.868 45.3109 36.84C46.3189 37.812 47.4349 38.298 48.6589 38.298C49.8829 38.298 50.9989 37.812 52.0069 36.84C53.0149 35.868 53.8789 34.554 54.5989 32.898C55.3189 31.242 55.8769 29.316 56.2729 27.12C56.6689 24.924 56.8669 22.584 56.8669 20.1C56.8669 17.616 56.6689 15.276 56.2729 13.08C55.8769 10.884 55.3189 8.958 54.5989 7.302C53.8789 5.646 53.0149 4.332 52.0069 3.36C50.9989 2.388 49.8829 1.902 48.6589 1.902ZM65.9376 39V38.946C66.4776 38.658 66.9636 37.992 67.3956 36.948C67.8636 35.868 68.2776 34.554 68.6376 33.006C68.9976 31.422 69.2676 29.64 69.4476 27.66C69.6636 25.644 69.7716 23.538 69.7716 21.342V12.054C69.7716 10.542 69.6816 9.156 69.5016 7.896C69.3576 6.636 69.1416 5.538 68.8536 4.602C68.6016 3.666 68.3316 2.91 68.0436 2.334C67.7556 1.758 67.4676 1.398 67.1796 1.254V1.2H75.4416L88.5636 22.584C88.7436 22.872 88.9056 23.124 89.0496 23.34C89.1936 23.52 89.3556 23.61 89.5356 23.61C89.7156 23.61 89.8596 23.376 89.9676 22.908C90.1116 22.404 90.1836 21.486 90.1836 20.154V18.858C90.1836 16.662 90.0756 14.574 89.8596 12.594C89.6796 10.578 89.4096 8.796 89.0496 7.248C88.7256 5.664 88.3296 4.35 87.8616 3.306C87.4296 2.226 86.9436 1.542 86.4036 1.254V1.2H95.0436V1.254C94.5036 1.542 93.9996 2.226 93.5316 3.306C93.0996 4.35 92.7036 5.664 92.3436 7.248C91.9836 8.796 91.6956 10.578 91.4796 12.594C91.2996 14.574 91.2096 16.662 91.2096 18.858V40.242H91.1556L72.4176 9.84C72.2736 9.588 72.1296 9.39 71.9856 9.246C71.8416 9.066 71.6976 8.976 71.5536 8.976C71.3376 8.976 71.1396 9.318 70.9596 10.002C70.8156 10.686 70.7436 11.982 70.7436 13.89V21.342C70.7436 23.538 70.8336 25.644 71.0136 27.66C71.2296 29.64 71.5176 31.422 71.8776 33.006C72.2376 34.554 72.6336 35.868 73.0656 36.948C73.5336 37.992 74.0376 38.658 74.5776 38.946V39H65.9376ZM99.4421 10.056C99.1541 9.048 98.8301 8.058 98.4701 7.086C98.1461 6.078 97.8041 5.178 97.4441 4.386C97.0841 3.558 96.7241 2.874 96.3641 2.334C96.0401 1.758 95.7161 1.398 95.3921 1.254V1.2H105.76V1.254C105.436 1.47 105.274 1.992 105.274 2.82C105.274 3.648 105.346 4.548 105.49 5.52C105.634 6.456 105.796 7.356 105.976 8.22C106.192 9.084 106.336 9.696 106.408 10.056L111.862 30.36C112.078 31.224 112.402 31.656 112.834 31.656C113.23 31.656 113.536 31.224 113.752 30.36L116.776 19.182C117.352 16.986 117.802 14.88 118.126 12.864C118.45 10.812 118.63 8.976 118.666 7.356C118.738 5.736 118.666 4.386 118.45 3.306C118.27 2.226 117.964 1.542 117.532 1.254V1.2H126.172V1.254C125.2 1.686 124.3 2.532 123.472 3.792C122.68 5.052 121.942 6.546 121.258 8.274C120.574 9.966 119.944 11.784 119.368 13.728C118.792 15.636 118.27 17.454 117.802 19.182L112.456 39H107.488L99.4421 10.056ZM127.342 39V38.946C127.63 38.802 127.864 38.46 128.044 37.92C128.26 37.344 128.44 36.66 128.584 35.868C128.728 35.04 128.836 34.14 128.908 33.168C128.98 32.16 129.016 31.152 129.016 30.144V10.056C129.016 9.048 128.98 8.058 128.908 7.086C128.836 6.078 128.728 5.178 128.584 4.386C128.44 3.558 128.26 2.874 128.044 2.334C127.864 1.758 127.63 1.398 127.342 1.254V1.2H137.71V1.254C137.458 1.398 137.224 1.758 137.008 2.334C136.792 2.874 136.594 3.558 136.414 4.386C136.27 5.178 136.162 6.078 136.09 7.086C136.018 8.058 135.982 9.048 135.982 10.056V30.144C135.982 31.152 136.018 32.16 136.09 33.168C136.162 34.14 136.27 35.04 136.414 35.868C136.594 36.66 136.792 37.344 137.008 37.92C137.224 38.46 137.458 38.802 137.71 38.946V39H127.342ZM141.053 39V38.946C141.341 38.802 141.575 38.46 141.755 37.92C141.971 37.344 142.151 36.66 142.295 35.868C142.439 35.04 142.547 34.14 142.619 33.168C142.691 32.16 142.727 31.152 142.727 30.144V10.056C142.727 9.048 142.691 8.058 142.619 7.086C142.547 6.078 142.439 5.178 142.295 4.386C142.151 3.558 141.971 2.874 141.755 2.334C141.575 1.758 141.341 1.398 141.053 1.254V1.2H164.543L165.893 14.106H165.839C165.371 13.098 164.777 11.91 164.057 10.542C163.373 9.174 162.509 7.878 161.465 6.654C160.457 5.43 159.251 4.386 157.847 3.522C156.479 2.658 154.895 2.226 153.095 2.226C151.691 2.226 150.773 2.856 150.341 4.116C149.909 5.34 149.693 6.978 149.693 9.03V19.614H151.367C152.663 19.614 153.815 19.47 154.823 19.182C155.867 18.894 156.749 18.552 157.469 18.156C158.189 17.724 158.783 17.292 159.251 16.86C159.719 16.428 160.025 16.086 160.169 15.834V24.366C160.025 24.078 159.719 23.736 159.251 23.34C158.819 22.908 158.243 22.494 157.523 22.098C156.803 21.666 155.921 21.306 154.877 21.018C153.869 20.73 152.699 20.586 151.367 20.586H149.693V31.17C149.693 33.222 149.909 34.878 150.341 36.138C150.773 37.362 151.691 37.974 153.095 37.974H153.797C155.597 37.974 157.181 37.542 158.549 36.678C159.953 35.814 161.159 34.77 162.167 33.546C163.211 32.322 164.075 31.026 164.759 29.658C165.479 28.29 166.055 27.102 166.487 26.094H166.541L165.191 39H141.053ZM170.004 39V38.946C170.292 38.802 170.526 38.46 170.706 37.92C170.922 37.344 171.102 36.66 171.246 35.868C171.39 35.04 171.498 34.14 171.57 33.168C171.642 32.16 171.678 31.152 171.678 30.144V10.056C171.678 9.048 171.642 8.058 171.57 7.086C171.498 6.078 171.39 5.178 171.246 4.386C171.102 3.558 170.922 2.874 170.706 2.334C170.526 1.758 170.292 1.398 170.004 1.254V1.2H186.15C188.562 1.2 190.578 1.704 192.198 2.712C193.818 3.72 195.06 4.98 195.924 6.492C196.788 8.004 197.256 9.678 197.328 11.514C197.436 13.314 197.166 15.042 196.518 16.698C195.87 18.318 194.826 19.722 193.386 20.91C191.982 22.098 190.218 22.854 188.094 23.178C189.282 23.646 190.29 24.33 191.118 25.23C191.946 26.094 192.666 27.084 193.278 28.2C193.89 29.28 194.448 30.432 194.952 31.656C195.456 32.844 195.978 33.978 196.518 35.058C197.058 36.102 197.652 37.038 198.3 37.866C198.948 38.694 199.74 39.288 200.676 39.648V39.702C199.38 40.062 198.174 40.242 197.058 40.242C195.258 40.242 193.746 39.828 192.522 39C191.334 38.172 190.326 37.128 189.498 35.868C188.706 34.608 188.004 33.258 187.392 31.818C186.816 30.342 186.222 28.974 185.61 27.714C185.034 26.454 184.368 25.41 183.612 24.582C182.856 23.754 181.902 23.34 180.75 23.34V22.314C182.694 22.314 184.314 21.828 185.61 20.856C186.906 19.848 187.878 18.606 188.526 17.13C189.174 15.618 189.534 13.998 189.606 12.27C189.678 10.542 189.462 8.94 188.958 7.464C188.454 5.952 187.68 4.71 186.636 3.738C185.592 2.73 184.314 2.226 182.802 2.226H182.046C180.642 2.226 179.724 2.856 179.292 4.116C178.86 5.34 178.644 6.978 178.644 9.03V30.144C178.644 31.152 178.68 32.16 178.752 33.168C178.824 34.14 178.932 35.04 179.076 35.868C179.256 36.66 179.454 37.344 179.67 37.92C179.886 38.46 180.12 38.802 180.372 38.946V39H170.004ZM208.876 2.226C208.336 2.226 207.778 2.46 207.202 2.928C206.662 3.396 206.122 4.008 205.582 4.764C205.042 5.484 204.52 6.312 204.016 7.248C203.512 8.148 203.044 9.048 202.612 9.948C202.18 10.812 201.802 11.622 201.478 12.378C201.19 13.098 200.956 13.674 200.776 14.106H200.722L202.072 1.2H229.45L230.8 14.106H230.746C230.566 13.674 230.314 13.098 229.99 12.378C229.702 11.622 229.342 10.812 228.91 9.948C228.478 9.048 228.01 8.148 227.506 7.248C227.002 6.312 226.48 5.484 225.94 4.764C225.4 4.008 224.842 3.396 224.266 2.928C223.726 2.46 223.186 2.226 222.646 2.226C221.926 2.226 221.332 2.388 220.864 2.712C220.432 3.036 220.09 3.504 219.838 4.116C219.622 4.692 219.46 5.412 219.352 6.276C219.28 7.104 219.244 8.022 219.244 9.03V30.144C219.244 31.152 219.28 32.16 219.352 33.168C219.424 34.14 219.532 35.04 219.676 35.868C219.82 36.66 220 37.344 220.216 37.92C220.432 38.46 220.666 38.802 220.918 38.946V39H210.604V38.946C210.856 38.802 211.09 38.46 211.306 37.92C211.522 37.344 211.702 36.66 211.846 35.868C211.99 35.04 212.098 34.14 212.17 33.168C212.242 32.16 212.278 31.152 212.278 30.144V9.03C212.278 8.022 212.224 7.104 212.116 6.276C212.044 5.412 211.882 4.692 211.63 4.116C211.414 3.504 211.072 3.036 210.604 2.712C210.172 2.388 209.596 2.226 208.876 2.226ZM231.387 39V38.946C231.675 38.802 231.909 38.46 232.089 37.92C232.305 37.344 232.485 36.66 232.629 35.868C232.773 35.04 232.881 34.14 232.953 33.168C233.025 32.16 233.061 31.152 233.061 30.144V10.056C233.061 9.048 233.025 8.058 232.953 7.086C232.881 6.078 232.773 5.178 232.629 4.386C232.485 3.558 232.305 2.874 232.089 2.334C231.909 1.758 231.675 1.398 231.387 1.254V1.2H254.877L256.227 14.106H256.173C255.705 13.098 255.111 11.91 254.391 10.542C253.707 9.174 252.843 7.878 251.799 6.654C250.791 5.43 249.585 4.386 248.181 3.522C246.813 2.658 245.229 2.226 243.429 2.226C242.025 2.226 241.107 2.856 240.675 4.116C240.243 5.34 240.027 6.978 240.027 9.03V19.614H241.701C242.997 19.614 244.149 19.47 245.157 19.182C246.201 18.894 247.083 18.552 247.803 18.156C248.523 17.724 249.117 17.292 249.585 16.86C250.053 16.428 250.359 16.086 250.503 15.834V24.366C250.359 24.078 250.053 23.736 249.585 23.34C249.153 22.908 248.577 22.494 247.857 22.098C247.137 21.666 246.255 21.306 245.211 21.018C244.203 20.73 243.033 20.586 241.701 20.586H240.027V31.17C240.027 33.222 240.243 34.878 240.675 36.138C241.107 37.362 242.025 37.974 243.429 37.974H244.131C245.931 37.974 247.515 37.542 248.883 36.678C250.287 35.814 251.493 34.77 252.501 33.546C253.545 32.322 254.409 31.026 255.093 29.658C255.813 28.29 256.389 27.102 256.821 26.094H256.875L255.525 39H231.387ZM281.649 2.226C281.109 2.226 280.551 2.46 279.975 2.928C279.435 3.396 278.895 4.008 278.355 4.764C277.815 5.484 277.293 6.312 276.789 7.248C276.285 8.148 275.817 9.048 275.385 9.948C274.953 10.812 274.575 11.622 274.251 12.378C273.963 13.098 273.729 13.674 273.549 14.106H273.495L274.845 1.2H302.223L303.573 14.106H303.519C303.339 13.674 303.087 13.098 302.763 12.378C302.475 11.622 302.115 10.812 301.683 9.948C301.251 9.048 300.783 8.148 300.279 7.248C299.775 6.312 299.253 5.484 298.713 4.764C298.173 4.008 297.615 3.396 297.039 2.928C296.499 2.46 295.959 2.226 295.419 2.226C294.699 2.226 294.105 2.388 293.637 2.712C293.205 3.036 292.863 3.504 292.611 4.116C292.395 4.692 292.233 5.412 292.125 6.276C292.053 7.104 292.017 8.022 292.017 9.03V30.144C292.017 31.152 292.053 32.16 292.125 33.168C292.197 34.14 292.305 35.04 292.449 35.868C292.593 36.66 292.773 37.344 292.989 37.92C293.205 38.46 293.439 38.802 293.691 38.946V39H283.377V38.946C283.629 38.802 283.863 38.46 284.079 37.92C284.295 37.344 284.475 36.66 284.619 35.868C284.763 35.04 284.871 34.14 284.943 33.168C285.015 32.16 285.051 31.152 285.051 30.144V9.03C285.051 8.022 284.997 7.104 284.889 6.276C284.817 5.412 284.655 4.692 284.403 4.116C284.187 3.504 283.845 3.036 283.377 2.712C282.945 2.388 282.369 2.226 281.649 2.226ZM307.145 10.056C307.145 9.984 307.127 9.534 307.091 8.706C307.091 7.878 307.037 6.96 306.929 5.952C306.821 4.908 306.659 3.936 306.443 3.036C306.227 2.1 305.903 1.506 305.471 1.254V1.2H315.839V1.254C315.587 1.398 315.353 1.758 315.137 2.334C314.921 2.874 314.723 3.558 314.543 4.386C314.399 5.178 314.291 6.078 314.219 7.086C314.147 8.058 314.111 9.048 314.111 10.056V26.148C314.111 27.768 314.345 29.19 314.813 30.414C315.281 31.602 315.893 32.61 316.649 33.438C317.441 34.23 318.323 34.842 319.295 35.274C320.303 35.67 321.311 35.868 322.319 35.868C323.363 35.868 324.371 35.67 325.343 35.274C326.351 34.842 327.251 34.23 328.043 33.438C328.835 32.61 329.465 31.602 329.933 30.414C330.401 29.19 330.635 27.768 330.635 26.148V18.858C330.635 16.662 330.527 14.574 330.311 12.594C330.131 10.578 329.861 8.796 329.501 7.248C329.177 5.664 328.781 4.35 328.313 3.306C327.881 2.226 327.395 1.542 326.855 1.254V1.2H335.495V1.254C334.955 1.542 334.451 2.226 333.983 3.306C333.515 4.35 333.101 5.664 332.741 7.248C332.417 8.796 332.147 10.578 331.931 12.594C331.751 14.574 331.661 16.662 331.661 18.858V26.148C331.661 28.308 331.301 30.216 330.581 31.872C329.897 33.492 328.979 34.842 327.827 35.922C326.711 37.002 325.415 37.812 323.939 38.352C322.463 38.892 320.969 39.162 319.457 39.162C317.909 39.162 316.397 38.892 314.921 38.352C313.445 37.812 312.131 37.002 310.979 35.922C309.827 34.806 308.891 33.438 308.171 31.818C307.487 30.198 307.145 28.308 307.145 26.148V10.056ZM351.885 39V38.946C352.173 38.802 352.407 38.46 352.587 37.92C352.803 37.344 352.983 36.66 353.127 35.868C353.271 35.04 353.379 34.14 353.451 33.168C353.523 32.16 353.559 31.152 353.559 30.144V10.056C353.559 9.048 353.523 8.058 353.451 7.086C353.379 6.078 353.271 5.178 353.127 4.386C352.983 3.558 352.803 2.874 352.587 2.334C352.407 1.758 352.173 1.398 351.885 1.254V1.2H367.329C369.741 1.2 371.757 1.632 373.377 2.496C374.997 3.324 376.239 4.386 377.103 5.682C377.967 6.978 378.435 8.4 378.507 9.948C378.615 11.496 378.345 12.972 377.697 14.376C377.049 15.78 376.023 17.004 374.619 18.048C373.251 19.056 371.505 19.704 369.381 19.992C371.865 19.992 373.935 20.46 375.591 21.396C377.247 22.332 378.489 23.502 379.317 24.906C380.145 26.31 380.559 27.84 380.559 29.496C380.595 31.152 380.199 32.682 379.371 34.086C378.579 35.49 377.337 36.66 375.645 37.596C373.989 38.532 371.901 39 369.381 39H351.885ZM363.927 2.226C362.523 2.226 361.605 2.856 361.173 4.116C360.741 5.34 360.525 6.978 360.525 9.03V31.17C360.525 33.222 360.741 34.878 361.173 36.138C361.605 37.362 362.523 37.974 363.927 37.974H366.681C368.229 37.974 369.507 37.542 370.515 36.678C371.523 35.814 372.279 34.752 372.783 33.492C373.287 32.196 373.521 30.792 373.485 29.28C373.485 27.768 373.233 26.382 372.729 25.122C372.225 23.826 371.469 22.746 370.461 21.882C369.453 21.018 368.193 20.586 366.681 20.586H364.629V19.614C366.177 19.542 367.455 19.074 368.463 18.21C369.471 17.346 370.227 16.266 370.731 14.97C371.235 13.674 371.469 12.288 371.433 10.812C371.433 9.3 371.181 7.914 370.677 6.654C370.173 5.394 369.417 4.35 368.409 3.522C367.401 2.658 366.141 2.226 364.629 2.226H363.927ZM399.29 39.324C396.518 39.324 394.142 38.802 392.162 37.758C390.182 36.714 388.562 35.328 387.302 33.6C386.042 31.836 385.106 29.802 384.494 27.498C383.918 25.158 383.63 22.692 383.63 20.1C383.63 17.508 383.918 15.06 384.494 12.756C385.106 10.416 386.042 8.382 387.302 6.654C388.562 4.89 390.182 3.486 392.162 2.442C394.142 1.398 396.518 0.875998 399.29 0.875998C402.098 0.875998 404.492 1.398 406.472 2.442C408.452 3.486 410.072 4.89 411.332 6.654C412.592 8.382 413.51 10.416 414.086 12.756C414.698 15.06 415.004 17.508 415.004 20.1C415.004 22.692 414.698 25.158 414.086 27.498C413.51 29.802 412.592 31.836 411.332 33.6C410.072 35.328 408.452 36.714 406.472 37.758C404.492 38.802 402.098 39.324 399.29 39.324ZM399.29 1.902C398.066 1.902 396.95 2.388 395.942 3.36C394.934 4.332 394.07 5.646 393.35 7.302C392.63 8.958 392.072 10.884 391.676 13.08C391.28 15.276 391.082 17.616 391.082 20.1C391.082 22.584 391.28 24.924 391.676 27.12C392.072 29.316 392.63 31.242 393.35 32.898C394.07 34.554 394.934 35.868 395.942 36.84C396.95 37.812 398.066 38.298 399.29 38.298C400.514 38.298 401.63 37.812 402.638 36.84C403.646 35.868 404.51 34.554 405.23 32.898C405.95 31.242 406.508 29.316 406.904 27.12C407.3 24.924 407.498 22.584 407.498 20.1C407.498 17.616 407.3 15.276 406.904 13.08C406.508 10.884 405.95 8.958 405.23 7.302C404.51 5.646 403.646 4.332 402.638 3.36C401.63 2.388 400.514 1.902 399.29 1.902ZM418.278 39V38.946C418.566 38.802 418.8 38.46 418.98 37.92C419.196 37.344 419.376 36.66 419.52 35.868C419.664 35.04 419.772 34.14 419.844 33.168C419.916 32.16 419.952 31.152 419.952 30.144V10.056C419.952 9.048 419.916 8.058 419.844 7.086C419.772 6.078 419.664 5.178 419.52 4.386C419.376 3.558 419.196 2.874 418.98 2.334C418.8 1.758 418.566 1.398 418.278 1.254V1.2H433.074C435.234 1.2 437.142 1.74 438.798 2.82C440.454 3.9 441.858 5.34 443.01 7.14C444.198 8.904 445.098 10.92 445.71 13.188C446.322 15.42 446.646 17.724 446.682 20.1C446.754 22.476 446.538 24.798 446.034 27.066C445.53 29.298 444.702 31.314 443.55 33.114C442.434 34.878 441.012 36.3 439.284 37.38C437.556 38.46 435.486 39 433.074 39H418.278ZM430.752 37.974C432.192 37.938 433.434 37.416 434.478 36.408C435.558 35.364 436.44 33.996 437.124 32.304C437.808 30.612 438.312 28.704 438.636 26.58C438.96 24.456 439.104 22.278 439.068 20.046C439.068 17.814 438.87 15.636 438.474 13.512C438.114 11.388 437.574 9.498 436.854 7.842C436.134 6.15 435.252 4.8 434.208 3.792C433.164 2.748 431.958 2.226 430.59 2.226C429.834 2.226 429.204 2.388 428.7 2.712C428.232 3.036 427.854 3.504 427.566 4.116C427.314 4.692 427.134 5.412 427.026 6.276C426.954 7.104 426.918 8.022 426.918 9.03V31.17C426.918 32.178 426.954 33.114 427.026 33.978C427.134 34.806 427.332 35.526 427.62 36.138C427.908 36.714 428.304 37.164 428.808 37.488C429.312 37.812 429.96 37.974 430.752 37.974ZM453.918 39H445.278V38.946C446.142 38.55 446.934 37.848 447.654 36.84C448.374 35.832 449.058 34.554 449.706 33.006C450.39 31.458 451.056 29.676 451.704 27.66C452.352 25.644 453 23.43 453.648 21.018L456.078 12.054C456.258 11.406 456.456 10.542 456.672 9.462C456.924 8.382 457.104 7.302 457.212 6.222C457.356 5.106 457.374 4.08 457.266 3.144C457.194 2.208 456.906 1.578 456.402 1.254V1.2H465.96V1.254C465.744 1.398 465.6 1.758 465.528 2.334C465.456 2.874 465.456 3.558 465.528 4.386C465.6 5.178 465.726 6.078 465.906 7.086C466.122 8.058 466.356 9.048 466.608 10.056L472.008 30.144C472.296 31.152 472.602 32.16 472.926 33.168C473.25 34.14 473.592 35.04 473.952 35.868C474.312 36.66 474.672 37.344 475.032 37.92C475.392 38.46 475.734 38.802 476.058 38.946V39H465.69V38.946C466.014 38.73 466.176 38.208 466.176 37.38C466.176 36.552 466.104 35.67 465.96 34.734C465.816 33.762 465.636 32.844 465.42 31.98C465.24 31.116 465.114 30.504 465.042 30.144L464.556 28.47H453.162C452.982 29.838 452.856 31.116 452.784 32.304C452.712 33.492 452.712 34.554 452.784 35.49C452.856 36.39 452.982 37.146 453.162 37.758C453.342 38.334 453.594 38.73 453.918 38.946V39ZM454.674 21.018C454.386 22.134 454.134 23.232 453.918 24.312C453.702 25.356 453.504 26.4 453.324 27.444H464.286L459.588 9.84C459.372 8.976 459.048 8.544 458.616 8.544C458.22 8.544 457.914 8.976 457.698 9.84L454.674 21.018ZM491.789 39V38.946C492.077 38.802 492.311 38.46 492.491 37.92C492.707 37.344 492.887 36.66 493.031 35.868C493.175 35.04 493.283 34.14 493.355 33.168C493.427 32.16 493.463 31.152 493.463 30.144V10.056C493.463 9.048 493.427 8.058 493.355 7.086C493.283 6.078 493.175 5.178 493.031 4.386C492.887 3.558 492.707 2.874 492.491 2.334C492.311 1.758 492.077 1.398 491.789 1.254V1.2H515.279L516.629 14.106H516.575C516.107 13.098 515.513 11.91 514.793 10.542C514.109 9.174 513.245 7.878 512.201 6.654C511.193 5.43 509.987 4.386 508.583 3.522C507.215 2.658 505.631 2.226 503.831 2.226C502.427 2.226 501.509 2.856 501.077 4.116C500.645 5.34 500.429 6.978 500.429 9.03V19.614H502.103C503.399 19.614 504.551 19.47 505.559 19.182C506.603 18.894 507.485 18.552 508.205 18.156C508.925 17.724 509.519 17.292 509.987 16.86C510.455 16.428 510.761 16.086 510.905 15.834V24.366C510.761 24.078 510.455 23.736 509.987 23.34C509.555 22.908 508.979 22.494 508.259 22.098C507.539 21.666 506.657 21.306 505.613 21.018C504.605 20.73 503.435 20.586 502.103 20.586H500.429V31.17C500.429 33.222 500.645 34.878 501.077 36.138C501.509 37.362 502.427 37.974 503.831 37.974H504.533C506.333 37.974 507.917 37.542 509.285 36.678C510.689 35.814 511.895 34.77 512.903 33.546C513.947 32.322 514.811 31.026 515.495 29.658C516.215 28.29 516.791 27.102 517.223 26.094H517.277L515.927 39H491.789ZM519.822 39V38.946C520.362 38.658 520.848 37.992 521.28 36.948C521.748 35.868 522.162 34.554 522.522 33.006C522.882 31.422 523.152 29.64 523.332 27.66C523.548 25.644 523.656 23.538 523.656 21.342V12.054C523.656 10.542 523.566 9.156 523.386 7.896C523.242 6.636 523.026 5.538 522.738 4.602C522.486 3.666 522.216 2.91 521.928 2.334C521.64 1.758 521.352 1.398 521.064 1.254V1.2H529.326L542.448 22.584C542.628 22.872 542.79 23.124 542.934 23.34C543.078 23.52 543.24 23.61 543.42 23.61C543.6 23.61 543.744 23.376 543.852 22.908C543.996 22.404 544.068 21.486 544.068 20.154V18.858C544.068 16.662 543.96 14.574 543.744 12.594C543.564 10.578 543.294 8.796 542.934 7.248C542.61 5.664 542.214 4.35 541.746 3.306C541.314 2.226 540.828 1.542 540.288 1.254V1.2H548.928V1.254C548.388 1.542 547.884 2.226 547.416 3.306C546.984 4.35 546.588 5.664 546.228 7.248C545.868 8.796 545.58 10.578 545.364 12.594C545.184 14.574 545.094 16.662 545.094 18.858V40.242H545.04L526.302 9.84C526.158 9.588 526.014 9.39 525.87 9.246C525.726 9.066 525.582 8.976 525.438 8.976C525.222 8.976 525.024 9.318 524.844 10.002C524.7 10.686 524.628 11.982 524.628 13.89V21.342C524.628 23.538 524.718 25.644 524.898 27.66C525.114 29.64 525.402 31.422 525.762 33.006C526.122 34.554 526.518 35.868 526.95 36.948C527.418 37.992 527.922 38.658 528.462 38.946V39H519.822ZM566.862 10.056C566.862 9.984 566.844 9.534 566.808 8.706C566.808 7.878 566.754 6.96 566.646 5.952C566.538 4.908 566.376 3.936 566.16 3.036C565.944 2.1 565.62 1.506 565.188 1.254V1.2H575.556V1.254C575.304 1.398 575.07 1.758 574.854 2.334C574.638 2.874 574.44 3.558 574.26 4.386C574.116 5.178 574.008 6.078 573.936 7.086C573.864 8.058 573.828 9.048 573.828 10.056V26.148C573.828 27.768 574.062 29.19 574.53 30.414C574.998 31.602 575.61 32.61 576.366 33.438C577.158 34.23 578.04 34.842 579.012 35.274C580.02 35.67 581.028 35.868 582.036 35.868C583.08 35.868 584.088 35.67 585.06 35.274C586.068 34.842 586.968 34.23 587.76 33.438C588.552 32.61 589.182 31.602 589.65 30.414C590.118 29.19 590.352 27.768 590.352 26.148V18.858C590.352 16.662 590.244 14.574 590.028 12.594C589.848 10.578 589.578 8.796 589.218 7.248C588.894 5.664 588.498 4.35 588.03 3.306C587.598 2.226 587.112 1.542 586.572 1.254V1.2H595.212V1.254C594.672 1.542 594.168 2.226 593.7 3.306C593.232 4.35 592.818 5.664 592.458 7.248C592.134 8.796 591.864 10.578 591.648 12.594C591.468 14.574 591.378 16.662 591.378 18.858V26.148C591.378 28.308 591.018 30.216 590.298 31.872C589.614 33.492 588.696 34.842 587.544 35.922C586.428 37.002 585.132 37.812 583.656 38.352C582.18 38.892 580.686 39.162 579.174 39.162C577.626 39.162 576.114 38.892 574.638 38.352C573.162 37.812 571.848 37.002 570.696 35.922C569.544 34.806 568.608 33.438 567.888 31.818C567.204 30.198 566.862 28.308 566.862 26.148V10.056ZM596.393 39V38.946C596.933 38.658 597.419 37.992 597.851 36.948C598.319 35.868 598.733 34.554 599.093 33.006C599.453 31.422 599.723 29.64 599.903 27.66C600.119 25.644 600.227 23.538 600.227 21.342V12.054C600.227 10.542 600.137 9.156 599.957 7.896C599.813 6.636 599.597 5.538 599.309 4.602C599.057 3.666 598.787 2.91 598.499 2.334C598.211 1.758 597.923 1.398 597.635 1.254V1.2H605.897L619.019 22.584C619.199 22.872 619.361 23.124 619.505 23.34C619.649 23.52 619.811 23.61 619.991 23.61C620.171 23.61 620.315 23.376 620.423 22.908C620.567 22.404 620.639 21.486 620.639 20.154V18.858C620.639 16.662 620.531 14.574 620.315 12.594C620.135 10.578 619.865 8.796 619.505 7.248C619.181 5.664 618.785 4.35 618.317 3.306C617.885 2.226 617.399 1.542 616.859 1.254V1.2H625.499V1.254C624.959 1.542 624.455 2.226 623.987 3.306C623.555 4.35 623.159 5.664 622.799 7.248C622.439 8.796 622.151 10.578 621.935 12.594C621.755 14.574 621.665 16.662 621.665 18.858V40.242H621.611L602.873 9.84C602.729 9.588 602.585 9.39 602.441 9.246C602.297 9.066 602.153 8.976 602.009 8.976C601.793 8.976 601.595 9.318 601.415 10.002C601.271 10.686 601.199 11.982 601.199 13.89V21.342C601.199 23.538 601.289 25.644 601.469 27.66C601.685 29.64 601.973 31.422 602.333 33.006C602.693 34.554 603.089 35.868 603.521 36.948C603.989 37.992 604.493 38.658 605.033 38.946V39H596.393ZM658.12 39.324C655.492 39.324 653.17 38.784 651.154 37.704C649.138 36.588 647.446 35.13 646.078 33.33C644.746 31.53 643.72 29.478 643 27.174C642.316 24.87 641.956 22.512 641.92 20.1C641.92 17.688 642.226 15.33 642.838 13.026C643.486 10.722 644.476 8.67 645.808 6.87C647.14 5.07 648.796 3.63 650.776 2.55C652.792 1.434 655.15 0.875998 657.85 0.875998C659.902 0.875998 661.702 1.2 663.25 1.848C664.798 2.46 666.076 3.288 667.084 4.332C668.128 5.34 668.902 6.474 669.406 7.734C669.91 8.994 670.162 10.254 670.162 11.514C670.162 12.522 670.018 13.404 669.73 14.16C669.442 14.88 669.046 15.474 668.542 15.942C668.074 16.41 667.534 16.752 666.922 16.968C666.346 17.184 665.752 17.292 665.14 17.292C664.204 17.292 663.34 17.058 662.548 16.59C661.792 16.086 661.288 15.402 661.036 14.538V14.484C661.504 14.016 661.864 13.386 662.116 12.594C662.368 11.766 662.512 10.884 662.548 9.948C662.584 9.012 662.494 8.076 662.278 7.14C662.098 6.168 661.792 5.304 661.36 4.548C660.964 3.756 660.442 3.126 659.794 2.658C659.182 2.154 658.462 1.902 657.634 1.902C656.482 1.902 655.42 2.37 654.448 3.306C653.476 4.242 652.63 5.466 651.91 6.978C651.19 8.49 650.614 10.218 650.182 12.162C649.75 14.106 649.498 16.104 649.426 18.156C649.39 20.172 649.57 22.152 649.966 24.096C650.362 26.04 650.992 27.768 651.856 29.28C652.756 30.792 653.944 32.016 655.42 32.952C656.896 33.888 658.678 34.356 660.766 34.356C662.998 34.356 665.05 33.798 666.922 32.682C668.83 31.566 670.414 29.892 671.674 27.66L671.782 27.768C670.63 31.296 668.866 34.104 666.49 36.192C664.15 38.28 661.36 39.324 658.12 39.324ZM675.811 10.056C675.811 9.984 675.793 9.534 675.757 8.706C675.757 7.878 675.703 6.96 675.595 5.952C675.487 4.908 675.325 3.936 675.109 3.036C674.893 2.1 674.569 1.506 674.137 1.254V1.2H684.505V1.254C684.253 1.398 684.019 1.758 683.803 2.334C683.587 2.874 683.389 3.558 683.209 4.386C683.065 5.178 682.957 6.078 682.885 7.086C682.813 8.058 682.777 9.048 682.777 10.056V26.148C682.777 27.768 683.011 29.19 683.479 30.414C683.947 31.602 684.559 32.61 685.315 33.438C686.107 34.23 686.989 34.842 687.961 35.274C688.969 35.67 689.977 35.868 690.985 35.868C692.029 35.868 693.037 35.67 694.009 35.274C695.017 34.842 695.917 34.23 696.709 33.438C697.501 32.61 698.131 31.602 698.599 30.414C699.067 29.19 699.301 27.768 699.301 26.148V18.858C699.301 16.662 699.193 14.574 698.977 12.594C698.797 10.578 698.527 8.796 698.167 7.248C697.843 5.664 697.447 4.35 696.979 3.306C696.547 2.226 696.061 1.542 695.521 1.254V1.2H704.161V1.254C703.621 1.542 703.117 2.226 702.649 3.306C702.181 4.35 701.767 5.664 701.407 7.248C701.083 8.796 700.813 10.578 700.597 12.594C700.417 14.574 700.327 16.662 700.327 18.858V26.148C700.327 28.308 699.967 30.216 699.247 31.872C698.563 33.492 697.645 34.842 696.493 35.922C695.377 37.002 694.081 37.812 692.605 38.352C691.129 38.892 689.635 39.162 688.123 39.162C686.575 39.162 685.063 38.892 683.587 38.352C682.111 37.812 680.797 37.002 679.645 35.922C678.493 34.806 677.557 33.438 676.837 31.818C676.153 30.198 675.811 28.308 675.811 26.148V10.056ZM706.26 39V38.946C706.548 38.802 706.782 38.46 706.962 37.92C707.178 37.344 707.358 36.66 707.502 35.868C707.646 35.04 707.754 34.14 707.826 33.168C707.898 32.16 707.934 31.152 707.934 30.144V10.056C707.934 9.048 707.898 8.058 707.826 7.086C707.754 6.078 707.646 5.178 707.502 4.386C707.358 3.558 707.178 2.874 706.962 2.334C706.782 1.758 706.548 1.398 706.26 1.254V1.2H729.75L731.1 14.106H731.046C730.578 13.098 729.984 11.91 729.264 10.542C728.58 9.174 727.716 7.878 726.672 6.654C725.664 5.43 724.458 4.386 723.054 3.522C721.686 2.658 720.102 2.226 718.302 2.226C716.898 2.226 715.98 2.856 715.548 4.116C715.116 5.34 714.9 6.978 714.9 9.03V19.614H716.574C717.87 19.614 719.022 19.47 720.03 19.182C721.074 18.894 721.956 18.552 722.676 18.156C723.396 17.724 723.99 17.292 724.458 16.86C724.926 16.428 725.232 16.086 725.376 15.834V24.366C725.232 24.078 724.926 23.736 724.458 23.34C724.026 22.908 723.45 22.494 722.73 22.098C722.01 21.666 721.128 21.306 720.084 21.018C719.076 20.73 717.906 20.586 716.574 20.586H714.9V31.17C714.9 33.222 715.116 34.878 715.548 36.138C715.98 37.362 716.898 37.974 718.302 37.974H719.004C720.804 37.974 722.388 37.542 723.756 36.678C725.16 35.814 726.366 34.77 727.374 33.546C728.418 32.322 729.282 31.026 729.966 29.658C730.686 28.29 731.262 27.102 731.694 26.094H731.748L730.398 39H706.26ZM734.293 39V38.946C734.833 38.658 735.319 37.992 735.751 36.948C736.219 35.868 736.633 34.554 736.993 33.006C737.353 31.422 737.623 29.64 737.803 27.66C738.019 25.644 738.127 23.538 738.127 21.342V12.054C738.127 10.542 738.037 9.156 737.857 7.896C737.713 6.636 737.497 5.538 737.209 4.602C736.957 3.666 736.687 2.91 736.399 2.334C736.111 1.758 735.823 1.398 735.535 1.254V1.2H743.797L756.919 22.584C757.099 22.872 757.261 23.124 757.405 23.34C757.549 23.52 757.711 23.61 757.891 23.61C758.071 23.61 758.215 23.376 758.323 22.908C758.467 22.404 758.539 21.486 758.539 20.154V18.858C758.539 16.662 758.431 14.574 758.215 12.594C758.035 10.578 757.765 8.796 757.405 7.248C757.081 5.664 756.685 4.35 756.217 3.306C755.785 2.226 755.299 1.542 754.759 1.254V1.2H763.399V1.254C762.859 1.542 762.355 2.226 761.887 3.306C761.455 4.35 761.059 5.664 760.699 7.248C760.339 8.796 760.051 10.578 759.835 12.594C759.655 14.574 759.565 16.662 759.565 18.858V40.242H759.511L740.773 9.84C740.629 9.588 740.485 9.39 740.341 9.246C740.197 9.066 740.053 8.976 739.909 8.976C739.693 8.976 739.495 9.318 739.315 10.002C739.171 10.686 739.099 11.982 739.099 13.89V21.342C739.099 23.538 739.189 25.644 739.369 27.66C739.585 29.64 739.873 31.422 740.233 33.006C740.593 34.554 740.989 35.868 741.421 36.948C741.889 37.992 742.393 38.658 742.933 38.946V39H734.293ZM772.712 2.226C772.172 2.226 771.614 2.46 771.038 2.928C770.498 3.396 769.958 4.008 769.418 4.764C768.878 5.484 768.356 6.312 767.852 7.248C767.348 8.148 766.88 9.048 766.448 9.948C766.016 10.812 765.638 11.622 765.314 12.378C765.026 13.098 764.792 13.674 764.612 14.106H764.558L765.908 1.2H793.286L794.636 14.106H794.582C794.402 13.674 794.15 13.098 793.826 12.378C793.538 11.622 793.178 10.812 792.746 9.948C792.314 9.048 791.846 8.148 791.342 7.248C790.838 6.312 790.316 5.484 789.776 4.764C789.236 4.008 788.678 3.396 788.102 2.928C787.562 2.46 787.022 2.226 786.482 2.226C785.762 2.226 785.168 2.388 784.7 2.712C784.268 3.036 783.926 3.504 783.674 4.116C783.458 4.692 783.296 5.412 783.188 6.276C783.116 7.104 783.08 8.022 783.08 9.03V30.144C783.08 31.152 783.116 32.16 783.188 33.168C783.26 34.14 783.368 35.04 783.512 35.868C783.656 36.66 783.836 37.344 784.052 37.92C784.268 38.46 784.502 38.802 784.754 38.946V39H774.44V38.946C774.692 38.802 774.926 38.46 775.142 37.92C775.358 37.344 775.538 36.66 775.682 35.868C775.826 35.04 775.934 34.14 776.006 33.168C776.078 32.16 776.114 31.152 776.114 30.144V9.03C776.114 8.022 776.06 7.104 775.952 6.276C775.88 5.412 775.718 4.692 775.466 4.116C775.25 3.504 774.908 3.036 774.44 2.712C774.008 2.388 773.432 2.226 772.712 2.226ZM812.464 39.324C809.692 39.324 807.316 38.802 805.336 37.758C803.356 36.714 801.736 35.328 800.476 33.6C799.216 31.836 798.28 29.802 797.668 27.498C797.092 25.158 796.804 22.692 796.804 20.1C796.804 17.508 797.092 15.06 797.668 12.756C798.28 10.416 799.216 8.382 800.476 6.654C801.736 4.89 803.356 3.486 805.336 2.442C807.316 1.398 809.692 0.875998 812.464 0.875998C815.272 0.875998 817.666 1.398 819.646 2.442C821.626 3.486 823.246 4.89 824.506 6.654C825.766 8.382 826.684 10.416 827.26 12.756C827.872 15.06 828.178 17.508 828.178 20.1C828.178 22.692 827.872 25.158 827.26 27.498C826.684 29.802 825.766 31.836 824.506 33.6C823.246 35.328 821.626 36.714 819.646 37.758C817.666 38.802 815.272 39.324 812.464 39.324ZM812.464 1.902C811.24 1.902 810.124 2.388 809.116 3.36C808.108 4.332 807.244 5.646 806.524 7.302C805.804 8.958 805.246 10.884 804.85 13.08C804.454 15.276 804.256 17.616 804.256 20.1C804.256 22.584 804.454 24.924 804.85 27.12C805.246 29.316 805.804 31.242 806.524 32.898C807.244 34.554 808.108 35.868 809.116 36.84C810.124 37.812 811.24 38.298 812.464 38.298C813.688 38.298 814.804 37.812 815.812 36.84C816.82 35.868 817.684 34.554 818.404 32.898C819.124 31.242 819.682 29.316 820.078 27.12C820.474 24.924 820.672 22.584 820.672 20.1C820.672 17.616 820.474 15.276 820.078 13.08C819.682 10.884 819.124 8.958 818.404 7.302C817.684 5.646 816.82 4.332 815.812 3.36C814.804 2.388 813.688 1.902 812.464 1.902ZM845.742 39V38.946C846.03 38.802 846.264 38.46 846.444 37.92C846.66 37.344 846.84 36.66 846.984 35.868C847.128 35.04 847.236 34.14 847.308 33.168C847.38 32.16 847.416 31.152 847.416 30.144V10.056C847.416 9.048 847.38 8.058 847.308 7.086C847.236 6.078 847.128 5.178 846.984 4.386C846.84 3.558 846.66 2.874 846.444 2.334C846.264 1.758 846.03 1.398 845.742 1.254V1.2H860.538C862.698 1.2 864.606 1.74 866.262 2.82C867.918 3.9 869.322 5.34 870.474 7.14C871.662 8.904 872.562 10.92 873.174 13.188C873.786 15.42 874.11 17.724 874.146 20.1C874.218 22.476 874.002 24.798 873.498 27.066C872.994 29.298 872.166 31.314 871.014 33.114C869.898 34.878 868.476 36.3 866.748 37.38C865.02 38.46 862.95 39 860.538 39H845.742ZM858.216 37.974C859.656 37.938 860.898 37.416 861.942 36.408C863.022 35.364 863.904 33.996 864.588 32.304C865.272 30.612 865.776 28.704 866.1 26.58C866.424 24.456 866.568 22.278 866.532 20.046C866.532 17.814 866.334 15.636 865.938 13.512C865.578 11.388 865.038 9.498 864.318 7.842C863.598 6.15 862.716 4.8 861.672 3.792C860.628 2.748 859.422 2.226 858.054 2.226C857.298 2.226 856.668 2.388 856.164 2.712C855.696 3.036 855.318 3.504 855.03 4.116C854.778 4.692 854.598 5.412 854.49 6.276C854.418 7.104 854.382 8.022 854.382 9.03V31.17C854.382 32.178 854.418 33.114 854.49 33.978C854.598 34.806 854.796 35.526 855.084 36.138C855.372 36.714 855.768 37.164 856.272 37.488C856.776 37.812 857.424 37.974 858.216 37.974ZM877.488 39V38.946C877.776 38.802 878.01 38.46 878.19 37.92C878.406 37.344 878.586 36.66 878.73 35.868C878.874 35.04 878.982 34.14 879.054 33.168C879.126 32.16 879.162 31.152 879.162 30.144V10.056C879.162 9.048 879.126 8.058 879.054 7.086C878.982 6.078 878.874 5.178 878.73 4.386C878.586 3.558 878.406 2.874 878.19 2.334C878.01 1.758 877.776 1.398 877.488 1.254V1.2H900.978L902.328 14.106H902.274C901.806 13.098 901.212 11.91 900.492 10.542C899.808 9.174 898.944 7.878 897.9 6.654C896.892 5.43 895.686 4.386 894.282 3.522C892.914 2.658 891.33 2.226 889.53 2.226C888.126 2.226 887.208 2.856 886.776 4.116C886.344 5.34 886.128 6.978 886.128 9.03V19.614H887.802C889.098 19.614 890.25 19.47 891.258 19.182C892.302 18.894 893.184 18.552 893.904 18.156C894.624 17.724 895.218 17.292 895.686 16.86C896.154 16.428 896.46 16.086 896.604 15.834V24.366C896.46 24.078 896.154 23.736 895.686 23.34C895.254 22.908 894.678 22.494 893.958 22.098C893.238 21.666 892.356 21.306 891.312 21.018C890.304 20.73 889.134 20.586 887.802 20.586H886.128V31.17C886.128 33.222 886.344 34.878 886.776 36.138C887.208 37.362 888.126 37.974 889.53 37.974H890.232C892.032 37.974 893.616 37.542 894.984 36.678C896.388 35.814 897.594 34.77 898.602 33.546C899.646 32.322 900.51 31.026 901.194 29.658C901.914 28.29 902.49 27.102 902.922 26.094H902.976L901.626 39H877.488ZM920.731 39V38.946C921.019 38.802 921.253 38.46 921.433 37.92C921.649 37.344 921.829 36.66 921.973 35.868C922.117 35.04 922.225 34.14 922.297 33.168C922.369 32.16 922.405 31.152 922.405 30.144V10.056C922.405 9.048 922.369 8.058 922.297 7.086C922.225 6.078 922.117 5.178 921.973 4.386C921.829 3.558 921.649 2.874 921.433 2.334C921.253 1.758 921.019 1.398 920.731 1.254V1.2H931.099V1.254C930.847 1.398 930.613 1.758 930.397 2.334C930.181 2.874 929.983 3.558 929.803 4.386C929.659 5.178 929.551 6.078 929.479 7.086C929.407 8.058 929.371 9.048 929.371 10.056V15.402C929.515 16.662 929.821 17.688 930.289 18.48C930.793 19.236 931.585 19.614 932.665 19.614H938.065C938.785 19.614 939.361 19.452 939.793 19.128C940.261 18.768 940.603 18.3 940.819 17.724C941.071 17.112 941.233 16.392 941.305 15.564C941.413 14.736 941.467 13.818 941.467 12.81V10.056C941.467 9.048 941.431 8.058 941.359 7.086C941.287 6.078 941.179 5.178 941.035 4.386C940.891 3.558 940.711 2.874 940.495 2.334C940.315 1.758 940.081 1.398 939.793 1.254V1.2H950.161V1.254C949.909 1.398 949.675 1.758 949.459 2.334C949.243 2.874 949.045 3.558 948.865 4.386C948.721 5.178 948.613 6.078 948.541 7.086C948.469 8.058 948.433 9.048 948.433 10.056V30.144C948.433 31.152 948.469 32.16 948.541 33.168C948.613 34.14 948.721 35.04 948.865 35.868C949.045 36.66 949.243 37.344 949.459 37.92C949.675 38.46 949.909 38.802 950.161 38.946V39H939.793V38.946C940.081 38.802 940.315 38.46 940.495 37.92C940.711 37.344 940.891 36.66 941.035 35.868C941.179 35.04 941.287 34.14 941.359 33.168C941.431 32.16 941.467 31.152 941.467 30.144V27.39C941.467 26.382 941.413 25.464 941.305 24.636C941.233 23.808 941.071 23.106 940.819 22.53C940.603 21.918 940.261 21.45 939.793 21.126C939.361 20.766 938.785 20.586 938.065 20.586H932.665C931.585 20.586 930.793 20.982 930.289 21.774C929.821 22.53 929.515 23.538 929.371 24.798V30.144C929.371 31.152 929.407 32.16 929.479 33.168C929.551 34.14 929.659 35.04 929.803 35.868C929.983 36.66 930.181 37.344 930.397 37.92C930.613 38.46 930.847 38.802 931.099 38.946V39H920.731ZM959.957 39H951.317V38.946C952.181 38.55 952.973 37.848 953.693 36.84C954.413 35.832 955.097 34.554 955.745 33.006C956.429 31.458 957.095 29.676 957.743 27.66C958.391 25.644 959.039 23.43 959.687 21.018L962.117 12.054C962.297 11.406 962.495 10.542 962.711 9.462C962.963 8.382 963.143 7.302 963.251 6.222C963.395 5.106 963.413 4.08 963.305 3.144C963.233 2.208 962.945 1.578 962.441 1.254V1.2H971.999V1.254C971.783 1.398 971.639 1.758 971.567 2.334C971.495 2.874 971.495 3.558 971.567 4.386C971.639 5.178 971.765 6.078 971.945 7.086C972.161 8.058 972.395 9.048 972.647 10.056L978.047 30.144C978.335 31.152 978.641 32.16 978.965 33.168C979.289 34.14 979.631 35.04 979.991 35.868C980.351 36.66 980.711 37.344 981.071 37.92C981.431 38.46 981.773 38.802 982.097 38.946V39H971.729V38.946C972.053 38.73 972.215 38.208 972.215 37.38C972.215 36.552 972.143 35.67 971.999 34.734C971.855 33.762 971.675 32.844 971.459 31.98C971.279 31.116 971.153 30.504 971.081 30.144L970.595 28.47H959.201C959.021 29.838 958.895 31.116 958.823 32.304C958.751 33.492 958.751 34.554 958.823 35.49C958.895 36.39 959.021 37.146 959.201 37.758C959.381 38.334 959.633 38.73 959.957 38.946V39ZM960.713 21.018C960.425 22.134 960.173 23.232 959.957 24.312C959.741 25.356 959.543 26.4 959.363 27.444H970.325L965.627 9.84C965.411 8.976 965.087 8.544 964.655 8.544C964.259 8.544 963.953 8.976 963.737 9.84L960.713 21.018ZM983.537 39V38.946C983.825 38.802 984.059 38.46 984.239 37.92C984.455 37.344 984.635 36.66 984.779 35.868C984.923 35.04 985.031 34.14 985.103 33.168C985.175 32.16 985.211 31.152 985.211 30.144V10.056C985.211 9.048 985.175 8.058 985.103 7.086C985.031 6.078 984.923 5.178 984.779 4.386C984.635 3.558 984.455 2.874 984.239 2.334C984.059 1.758 983.825 1.398 983.537 1.254V1.2H998.333C1000.49 1.2 1002.4 1.74 1004.06 2.82C1005.71 3.9 1007.12 5.34 1008.27 7.14C1009.46 8.904 1010.36 10.92 1010.97 13.188C1011.58 15.42 1011.91 17.724 1011.94 20.1C1012.01 22.476 1011.8 24.798 1011.29 27.066C1010.79 29.298 1009.96 31.314 1008.81 33.114C1007.69 34.878 1006.27 36.3 1004.54 37.38C1002.82 38.46 1000.75 39 998.333 39H983.537ZM996.011 37.974C997.451 37.938 998.693 37.416 999.737 36.408C1000.82 35.364 1001.7 33.996 1002.38 32.304C1003.07 30.612 1003.57 28.704 1003.9 26.58C1004.22 24.456 1004.36 22.278 1004.33 20.046C1004.33 17.814 1004.13 15.636 1003.73 13.512C1003.37 11.388 1002.83 9.498 1002.11 7.842C1001.39 6.15 1000.51 4.8 999.467 3.792C998.423 2.748 997.217 2.226 995.849 2.226C995.093 2.226 994.463 2.388 993.959 2.712C993.491 3.036 993.113 3.504 992.825 4.116C992.573 4.692 992.393 5.412 992.285 6.276C992.213 7.104 992.177 8.022 992.177 9.03V31.17C992.177 32.178 992.213 33.114 992.285 33.978C992.393 34.806 992.591 35.526 992.879 36.138C993.167 36.714 993.563 37.164 994.067 37.488C994.571 37.812 995.219 37.974 996.011 37.974ZM1019.18 39H1010.54V38.946C1011.4 38.55 1012.19 37.848 1012.91 36.84C1013.63 35.832 1014.32 34.554 1014.97 33.006C1015.65 31.458 1016.32 29.676 1016.96 27.66C1017.61 25.644 1018.26 23.43 1018.91 21.018L1021.34 12.054C1021.52 11.406 1021.72 10.542 1021.93 9.462C1022.18 8.382 1022.36 7.302 1022.47 6.222C1022.62 5.106 1022.63 4.08 1022.53 3.144C1022.45 2.208 1022.17 1.578 1021.66 1.254V1.2H1031.22V1.254C1031 1.398 1030.86 1.758 1030.79 2.334C1030.72 2.874 1030.72 3.558 1030.79 4.386C1030.86 5.178 1030.99 6.078 1031.17 7.086C1031.38 8.058 1031.62 9.048 1031.87 10.056L1037.27 30.144C1037.56 31.152 1037.86 32.16 1038.19 33.168C1038.51 34.14 1038.85 35.04 1039.21 35.868C1039.57 36.66 1039.93 37.344 1040.29 37.92C1040.65 38.46 1040.99 38.802 1041.32 38.946V39H1030.95V38.946C1031.27 38.73 1031.44 38.208 1031.44 37.38C1031.44 36.552 1031.36 35.67 1031.22 34.734C1031.08 33.762 1030.9 32.844 1030.68 31.98C1030.5 31.116 1030.37 30.504 1030.3 30.144L1029.82 28.47H1018.42C1018.24 29.838 1018.12 31.116 1018.04 32.304C1017.97 33.492 1017.97 34.554 1018.04 35.49C1018.12 36.39 1018.24 37.146 1018.42 37.758C1018.6 38.334 1018.85 38.73 1019.18 38.946V39ZM1019.93 21.018C1019.65 22.134 1019.39 23.232 1019.18 24.312C1018.96 25.356 1018.76 26.4 1018.58 27.444H1029.55L1024.85 9.84C1024.63 8.976 1024.31 8.544 1023.88 8.544C1023.48 8.544 1023.17 8.976 1022.96 9.84L1019.93 21.018ZM1051.19 27.606C1050.68 28.11 1050.31 28.776 1050.05 29.604C1049.8 30.396 1049.68 31.206 1049.68 32.034C1049.68 33.006 1049.84 33.87 1050.16 34.626C1050.52 35.382 1050.97 36.012 1051.51 36.516C1052.05 37.02 1052.66 37.398 1053.35 37.65C1054.07 37.902 1054.79 38.028 1055.51 38.028C1056.19 38.028 1056.86 37.92 1057.51 37.704C1058.15 37.452 1058.73 37.092 1059.23 36.624C1059.77 36.12 1060.19 35.526 1060.48 34.842C1060.8 34.122 1060.96 33.276 1060.96 32.304C1060.96 31.116 1060.51 29.946 1059.61 28.794C1058.75 27.606 1057.65 26.418 1056.32 25.23C1054.99 24.042 1053.55 22.818 1052 21.558C1050.49 20.298 1049.06 19.002 1047.73 17.67C1046.4 16.338 1045.28 14.952 1044.38 13.512C1043.52 12.036 1043.09 10.488 1043.09 8.868C1043.09 7.536 1043.39 6.366 1044.01 5.358C1044.65 4.35 1045.48 3.522 1046.49 2.874C1047.53 2.19 1048.7 1.686 1050 1.362C1051.33 1.038 1052.7 0.875998 1054.1 0.875998C1055.58 0.875998 1057.04 1.074 1058.48 1.47C1059.95 1.83 1061.25 2.388 1062.37 3.144C1063.52 3.864 1064.44 4.782 1065.12 5.898C1065.84 6.978 1066.2 8.256 1066.2 9.732C1066.2 10.632 1066.06 11.424 1065.77 12.108C1065.52 12.756 1065.16 13.296 1064.69 13.728C1064.26 14.16 1063.75 14.484 1063.18 14.7C1062.64 14.916 1062.08 15.024 1061.5 15.024C1060.57 15.024 1059.7 14.79 1058.91 14.322C1058.15 13.818 1057.65 13.116 1057.4 12.216V12.162C1057.9 11.658 1058.28 11.01 1058.53 10.218C1058.78 9.39 1058.91 8.526 1058.91 7.626C1058.91 5.826 1058.44 4.476 1057.51 3.576C1056.57 2.64 1055.56 2.172 1054.48 2.172C1053.44 2.172 1052.48 2.604 1051.62 3.468C1050.76 4.296 1050.32 5.574 1050.32 7.302C1050.32 8.958 1050.74 10.47 1051.57 11.838C1052.43 13.17 1053.49 14.43 1054.75 15.618C1056.05 16.806 1057.43 17.958 1058.91 19.074C1060.42 20.154 1061.81 21.27 1063.07 22.422C1064.36 23.574 1065.43 24.798 1066.25 26.094C1067.12 27.354 1067.55 28.74 1067.55 30.252C1067.55 31.764 1067.19 33.096 1066.47 34.248C1065.79 35.364 1064.87 36.3 1063.72 37.056C1062.56 37.812 1061.25 38.388 1059.77 38.784C1058.3 39.144 1056.79 39.324 1055.24 39.324C1053.65 39.324 1052.09 39.126 1050.54 38.73C1048.99 38.334 1047.61 37.758 1046.38 37.002C1045.19 36.21 1044.22 35.238 1043.47 34.086C1042.75 32.934 1042.39 31.602 1042.39 30.09C1042.39 29.154 1042.51 28.362 1042.76 27.714C1043.05 27.03 1043.41 26.472 1043.84 26.04C1044.31 25.608 1044.82 25.302 1045.36 25.122C1045.93 24.906 1046.51 24.798 1047.08 24.798C1048.02 24.798 1048.87 25.032 1049.62 25.5C1050.41 25.968 1050.94 26.652 1051.19 27.552V27.606Z" fill="black"/>
</svg>
